<svg width="1248" height="679" xmlns="http://www.w3.org/2000/svg" xmlns:xlink="http://www.w3.org/1999/xlink" overflow="hidden"><defs><clipPath id="clip0"><rect x="11" y="41" width="1248" height="679"/></clipPath></defs><g clip-path="url(#clip0)" transform="translate(-11 -41)"><text fill="#F1F0F0" font-family="Calibri,Calibri_MSFontService,sans-serif" font-weight="400" font-size="15" transform="translate(609 706)">Disclaimer<tspan x="631.767" y="0">2</tspan><tspan fill="#E7E6E6" font-weight="700" font-size="32" x="-5.8963" y="-625">Attribution List Data Exchange Patterns</tspan></text><path d="M84.5001 305.834C84.5001 295.708 92.7083 287.5 102.834 287.5L176.166 287.5C186.292 287.5 194.5 295.708 194.5 305.834L194.5 406.166C194.5 416.292 186.292 424.5 176.166 424.5L102.834 424.5C92.7083 424.5 84.5001 416.292 84.5001 406.166Z" stroke="#2F528F" stroke-width="1.33333" stroke-miterlimit="8" fill="#4472C4" fill-rule="evenodd"/><text fill="#FFFFFF" font-family="Calibri,Calibri_MSFontService,sans-serif" font-weight="400" font-size="19" transform="translate(104.543 361)">Producer</text><path d="M439.5 310.334C439.5 297.723 449.723 287.5 462.334 287.5L556.666 287.5C569.277 287.5 579.5 297.723 579.5 310.334L579.5 401.666C579.5 414.277 569.277 424.5 556.666 424.5L462.334 424.5C449.723 424.5 439.5 414.277 439.5 401.666Z" stroke="#2F528F" stroke-width="1.33333" stroke-miterlimit="8" fill="#FFC000" fill-rule="evenodd"/><text font-family="Calibri,Calibri_MSFontService,sans-serif" font-weight="400" font-size="21" transform="translate(464.611 363)">Consumer</text><path d="M1.43303e-07-0.333333 237.541-0.333231 237.541 0.333435-1.43303e-07 0.333333ZM236.208-3.9999 244.208 0.000104987 236.208 4.0001Z" fill="#4472C4" transform="matrix(-1 0 0 1 438.708 332.5)"/><text font-family="Calibri,Calibri_MSFontService,sans-serif" font-weight="400" font-size="16" transform="translate(199.877 305)">Request Attribution List</text><path d="M197.5 377.167 435.041 377.167 435.041 377.833 197.5 377.833ZM433.708 373.5 441.708 377.5 433.708 381.5Z" fill="#4472C4"/><text font-family="Calibri,Calibri_MSFontService,sans-serif" font-weight="400" font-size="16" transform="translate(203.905 412)">Receive Attribution List</text><path d="M85.5001 505C85.5001 494.783 93.7829 486.5 104 486.5L178 486.5C188.217 486.5 196.5 494.783 196.5 505L196.5 661C196.5 671.217 188.217 679.5 178 679.5L104 679.5C93.7829 679.5 85.5001 671.217 85.5001 661Z" stroke="#2F528F" stroke-width="1.33333" stroke-miterlimit="8" fill="#4472C4" fill-rule="evenodd"/><text fill="#FFFFFF" font-family="Calibri,Calibri_MSFontService,sans-serif" font-weight="400" font-size="19" transform="translate(105.743 589)">Producer</text><path d="M440.5 509.834C440.5 496.947 450.947 486.5 463.834 486.5L557.166 486.5C570.053 486.5 580.5 496.947 580.5 509.834L580.5 656.166C580.5 669.053 570.053 679.5 557.166 679.5L463.834 679.5C450.947 679.5 440.5 669.053 440.5 656.166Z" stroke="#2F528F" stroke-width="1.33333" stroke-miterlimit="8" fill="#FFC000" fill-rule="evenodd"/><text font-family="Calibri,Calibri_MSFontService,sans-serif" font-weight="400" font-size="21" transform="translate(465.812 590)">Consumer</text><path d="M1.43303e-07-0.333333 237.541-0.333231 237.541 0.333435-1.43303e-07 0.333333ZM236.208-3.9999 244.208 0.000104987 236.208 4.0001Z" fill="#4472C4" transform="matrix(-1 0 0 1 440.708 611.5)"/><text font-family="Calibri,Calibri_MSFontService,sans-serif" font-weight="400" font-size="19" transform="translate(201.077 585)">Request Attribution List<tspan x="0" y="23">changes</tspan></text><path d="M198.5 632.167 436.041 632.167 436.041 632.833 198.5 632.833ZM434.708 628.5 442.708 632.5 434.708 636.5Z" fill="#4472C4"/><text font-family="Calibri,Calibri_MSFontService,sans-serif" font-weight="400" font-size="19" transform="translate(197.052 662)">Receive Attribution List <tspan x="0" y="23">changes</tspan></text><path d="M198.5 520.167 436.041 520.167 436.041 520.833 198.5 520.833ZM434.708 516.5 442.708 520.5 434.708 524.5Z" fill="#4472C4"/><text font-family="Calibri,Calibri_MSFontService,sans-serif" font-weight="400" font-size="16" transform="translate(208.091 498)">Notify Attribution List changes</text><path d="M12.5001 351C12.5001 340.23 21.4544 331.5 32.5001 331.5 43.5457 331.5 52.5001 340.23 52.5001 351 52.5001 361.77 43.5457 370.5 32.5001 370.5 21.4544 370.5 12.5001 361.77 12.5001 351Z" stroke="#2F528F" stroke-width="1.33333" stroke-miterlimit="8" fill="#00B0F0" fill-rule="evenodd"/><text fill="#FFFFFF" font-family="Calibri,Calibri_MSFontService,sans-serif" font-weight="400" font-size="24" transform="translate(26.1175 358)">2</text><path d="M12.5001 583C12.5001 572.231 21.4544 563.5 32.5001 563.5 43.5457 563.5 52.5001 572.231 52.5001 583 52.5001 593.77 43.5457 602.5 32.5001 602.5 21.4544 602.5 12.5001 593.77 12.5001 583Z" stroke="#2F528F" stroke-width="1.33333" stroke-miterlimit="8" fill="#00B0F0" fill-rule="evenodd"/><text fill="#FFFFFF" font-family="Calibri,Calibri_MSFontService,sans-serif" font-weight="400" font-size="24" transform="translate(26.1175 590)">3</text><path d="M637.5 201C637.5 190.23 646.454 181.5 657.5 181.5 668.546 181.5 677.5 190.23 677.5 201 677.5 211.77 668.546 220.5 657.5 220.5 646.454 220.5 637.5 211.77 637.5 201Z" stroke="#2F528F" stroke-width="1.33333" stroke-miterlimit="8" fill="#00B0F0" fill-rule="evenodd"/><text fill="#FFFFFF" font-family="Calibri,Calibri_MSFontService,sans-serif" font-weight="400" font-size="24" transform="translate(651.319 208)">4</text><path d="M706.5 141.834C706.5 131.708 714.708 123.5 724.834 123.5L798.166 123.5C808.292 123.5 816.5 131.708 816.5 141.834L816.5 298.166C816.5 308.292 808.292 316.5 798.166 316.5L724.834 316.5C714.708 316.5 706.5 308.292 706.5 298.166Z" stroke="#2F528F" stroke-width="1.33333" stroke-miterlimit="8" fill="#4472C4" fill-rule="evenodd"/><text fill="#FFFFFF" font-family="Calibri,Calibri_MSFontService,sans-serif" font-weight="400" font-size="19" transform="translate(726.681 225)">Producer</text><path d="M1061.5 146.834C1061.5 133.947 1071.95 123.5 1084.83 123.5L1178.17 123.5C1191.05 123.5 1201.5 133.947 1201.5 146.834L1201.5 293.166C1201.5 306.053 1191.05 316.5 1178.17 316.5L1084.83 316.5C1071.95 316.5 1061.5 306.053 1061.5 293.166Z" stroke="#2F528F" stroke-width="1.33333" stroke-miterlimit="8" fill="#FFC000" fill-rule="evenodd"/><text font-family="Calibri,Calibri_MSFontService,sans-serif" font-weight="400" font-size="21" transform="translate(1086.75 227)">Consumer</text><path d="M1.43303e-07-0.333333 237.541-0.333231 237.541 0.333435-1.43303e-07 0.333333ZM236.208-3.9999 244.208 0.000104987 236.208 4.0001Z" fill="#4472C4" transform="matrix(-1 0 0 1 1060.71 270.5)"/><text font-family="Calibri,Calibri_MSFontService,sans-serif" font-weight="400" font-size="19" transform="translate(822.015 245)">Request Attribution List<tspan x="0" y="23">changes</tspan></text><path d="M819.5 291.167 1057.04 291.167 1057.04 291.833 819.5 291.833ZM1055.71 287.5 1063.71 291.5 1055.71 295.5Z" fill="#4472C4"/><text font-family="Calibri,Calibri_MSFontService,sans-serif" font-weight="400" font-size="19" transform="translate(817.99 321)">Receive Attribution List <tspan x="0" y="23">changes</tspan></text><path d="M826.167 157.167 1063.71 157.167 1063.71 157.833 826.167 157.833ZM827.5 161.5 819.5 157.5 827.5 153.5Z" fill="#4472C4"/><text font-family="Calibri,Calibri_MSFontService,sans-serif" font-weight="400" font-size="16" transform="translate(829.029 135)">Request Attribution List changes</text><path d="M819.5 200.167 1057.04 200.167 1057.04 200.833 819.5 200.833ZM1055.71 196.5 1063.71 200.5 1055.71 204.5Z" fill="#4472C4"/><text font-family="Calibri,Calibri_MSFontService,sans-serif" font-weight="400" font-size="16" transform="translate(834.493 193)">Notify Attribution List changes</text><path d="M635.5 482C635.5 471.23 644.454 462.5 655.5 462.5 666.546 462.5 675.5 471.23 675.5 482 675.5 492.77 666.546 501.5 655.5 501.5 644.454 501.5 635.5 492.77 635.5 482Z" stroke="#2F528F" stroke-width="1.33333" stroke-miterlimit="8" fill="#00B0F0" fill-rule="evenodd"/><text fill="#FFFFFF" font-family="Calibri,Calibri_MSFontService,sans-serif" font-weight="400" font-size="24" transform="translate(648.587 489)">5</text><path d="M703.5 424C703.5 413.783 711.783 405.5 722 405.5L796 405.5C806.217 405.5 814.5 413.783 814.5 424L814.5 579C814.5 589.217 806.217 597.5 796 597.5L722 597.5C711.783 597.5 703.5 589.217 703.5 579Z" stroke="#2F528F" stroke-width="1.33333" stroke-miterlimit="8" fill="#4472C4" fill-rule="evenodd"/><text fill="#FFFFFF" font-family="Calibri,Calibri_MSFontService,sans-serif" font-weight="400" font-size="19" transform="translate(723.95 507)">Producer</text><path d="M1058.5 429.001C1058.5 416.022 1069.02 405.5 1082 405.5L1176 405.5C1188.98 405.5 1199.5 416.022 1199.5 429.001L1199.5 574C1199.5 586.979 1188.98 597.5 1176 597.5L1082 597.5C1069.02 597.5 1058.5 586.979 1058.5 574Z" stroke="#2F528F" stroke-width="1.33333" stroke-miterlimit="8" fill="#FFC000" fill-rule="evenodd"/><text font-family="Calibri,Calibri_MSFontService,sans-serif" font-weight="400" font-size="21" transform="translate(1084.02 508)">Consumer</text><path d="M1.43303e-07-0.333333 237.541-0.333231 237.541 0.333435-1.43303e-07 0.333333ZM236.208-3.9999 244.208 0.000104987 236.208 4.0001Z" fill="#4472C4" transform="matrix(-1 0 0 1 1058.71 552.5)"/><text font-family="Calibri,Calibri_MSFontService,sans-serif" font-weight="400" font-size="19" transform="translate(819.284 526)">Request Attribution List<tspan x="0" y="23">changes</tspan></text><path d="M816.5 573.167 1054.04 573.167 1054.04 573.833 816.5 573.833ZM1052.71 569.5 1060.71 573.5 1052.71 577.5Z" fill="#4472C4"/><text font-family="Calibri,Calibri_MSFontService,sans-serif" font-weight="400" font-size="19" transform="translate(815.258 603)">Receive Attribution List <tspan x="0" y="23">changes</tspan></text><path d="M823.167 439.167 1060.71 439.167 1060.71 439.833 823.167 439.833ZM824.5 443.5 816.5 439.5 824.5 435.5Z" fill="#4472C4"/><path d="M816.5 482.167 1054.04 482.167 1054.04 482.833 816.5 482.833ZM1052.71 478.5 1060.71 482.5 1052.71 486.5Z" fill="#4472C4"/><text font-family="Calibri,Calibri_MSFontService,sans-serif" font-weight="400" font-size="16" transform="translate(831.761 474)">Notify Attribution List changes<tspan x="-2.98602" y="-46">Provide Initial Attribution List </tspan></text><path d="M88.5001 133C88.5001 122.783 96.783 114.5 107 114.5L181 114.5C191.217 114.5 199.5 122.783 199.5 133L199.5 233C199.5 243.217 191.217 251.5 181 251.5L107 251.5C96.783 251.5 88.5001 243.217 88.5001 233Z" stroke="#2F528F" stroke-width="1.33333" stroke-miterlimit="8" fill="#4472C4" fill-rule="evenodd"/><text fill="#FFFFFF" font-family="Calibri,Calibri_MSFontService,sans-serif" font-weight="400" font-size="19" transform="translate(108.999 188)">Producer</text><path d="M442.5 140.334C442.5 127.723 452.723 117.5 465.334 117.5L559.666 117.5C572.277 117.5 582.5 127.723 582.5 140.334L582.5 231.666C582.5 244.277 572.277 254.5 559.666 254.5L465.334 254.5C452.723 254.5 442.5 244.277 442.5 231.666Z" stroke="#2F528F" stroke-width="1.33333" stroke-miterlimit="8" fill="#FFC000" fill-rule="evenodd"/><text font-family="Calibri,Calibri_MSFontService,sans-serif" font-weight="400" font-size="21" transform="translate(467.773 193)">Consumer</text><path d="M198.5 181.167 436.041 181.167 436.041 181.833 198.5 181.833ZM434.708 177.5 442.708 181.5 434.708 185.5Z" fill="#4472C4"/><text font-family="Calibri,Calibri_MSFontService,sans-serif" font-weight="400" font-size="16" transform="translate(231.385 167)">Push Attribution List</text><path d="M17.5001 173C17.5001 162.23 26.4544 153.5 37.5001 153.5 48.5457 153.5 57.5001 162.23 57.5001 173 57.5001 183.77 48.5457 192.5 37.5001 192.5 26.4544 192.5 17.5001 183.77 17.5001 173Z" stroke="#2F528F" stroke-width="1.33333" stroke-miterlimit="8" fill="#00B0F0" fill-rule="evenodd"/><text fill="#FFFFFF" font-family="Calibri,Calibri_MSFontService,sans-serif" font-weight="400" font-size="24" transform="translate(30.9243 180)">1</text></g></svg>