<svg width="1174" height="537" xmlns="http://www.w3.org/2000/svg" xmlns:xlink="http://www.w3.org/1999/xlink" overflow="hidden"><defs><clipPath id="clip0"><rect x="85" y="183" width="1174" height="537"/></clipPath></defs><g clip-path="url(#clip0)" transform="translate(-85 -183)"><text fill="#F1F0F0" font-family="Calibri,Calibri_MSFontService,sans-serif" font-weight="400" font-size="15" transform="translate(609 706)">Disclaimer<tspan x="631.767" y="0">3</tspan></text><path d="M86.5001 351C86.5001 340.23 95.4544 331.5 106.5 331.5 117.546 331.5 126.5 340.23 126.5 351 126.5 361.77 117.546 370.5 106.5 370.5 95.4544 370.5 86.5001 361.77 86.5001 351Z" stroke="#2F528F" stroke-width="1.33333" stroke-miterlimit="8" fill="#00B0F0" fill-rule="evenodd"/><text fill="#FFFFFF" font-family="Calibri,Calibri_MSFontService,sans-serif" font-weight="400" font-size="24" transform="translate(99.7666 358)">6</text><path d="M173.5 203C173.5 192.783 181.783 184.5 192 184.5L266 184.5C276.217 184.5 284.5 192.783 284.5 203L284.5 632C284.5 642.217 276.217 650.5 266 650.5L192 650.5C181.783 650.5 173.5 642.217 173.5 632Z" stroke="#2F528F" stroke-width="1.33333" stroke-miterlimit="8" fill="#4472C4" fill-rule="evenodd"/><text fill="#FFFFFF" font-family="Calibri,Calibri_MSFontService,sans-serif" font-weight="400" font-size="19" transform="translate(193.812 423)">Producer</text><path d="M540.5 207.834C540.5 194.947 550.947 184.5 563.834 184.5L657.166 184.5C670.053 184.5 680.5 194.947 680.5 207.834L680.5 627.166C680.5 640.053 670.053 650.5 657.166 650.5L563.834 650.5C550.947 650.5 540.5 640.053 540.5 627.166Z" stroke="#2F528F" stroke-width="1.33333" stroke-miterlimit="8" fill="#FFC000" fill-rule="evenodd"/><text font-family="Calibri,Calibri_MSFontService,sans-serif" font-weight="400" font-size="21" transform="translate(565.83 424)">Consumer</text><path d="M292.167 224.167 529.708 224.167 529.708 224.833 292.167 224.833ZM293.5 228.5 285.5 224.5 293.5 220.5Z" fill="#4472C4"/><text font-family="Calibri,Calibri_MSFontService,sans-serif" font-weight="400" font-size="16" transform="translate(297.199 214)">Provide Initial Attribution List </text><path d="M283.5 267.167 521.041 267.167 521.041 267.833 283.5 267.833ZM519.708 263.5 527.708 267.5 519.708 271.5Z" fill="#4472C4"/><text font-family="Calibri,Calibri_MSFontService,sans-serif" font-weight="400" font-size="16" transform="translate(298.763 259)">Notify Initial Attribution List <tspan x="0" y="19">Readiness</tspan></text><path d="M1.43303e-07-0.333333 237.541-0.333231 237.541 0.333435-1.43303e-07 0.333333ZM236.208-3.9999 244.208 0.000104987 236.208 4.0001Z" fill="#4472C4" transform="matrix(-1 0 0 1 530.708 323.5)"/><text font-family="Calibri,Calibri_MSFontService,sans-serif" font-weight="400" font-size="19" transform="translate(291.176 309)">Request Initial Attribution List</text><path d="M288.5 341.167 526.041 341.167 526.041 341.833 288.5 341.833ZM524.708 337.5 532.708 341.5 524.708 345.5Z" fill="#4472C4"/><text font-family="Calibri,Calibri_MSFontService,sans-serif" font-weight="400" font-size="19" transform="translate(293.045 363)">Receive Initial Attribution List </text><path d="M1.43303e-07-0.333333 237.541-0.333231 237.541 0.333435-1.43303e-07 0.333333ZM236.208-3.9999 244.208 0.000104987 236.208 4.0001Z" fill="#4472C4" transform="matrix(-1 0 0 1 527.708 579.5)"/><text font-family="Calibri,Calibri_MSFontService,sans-serif" font-weight="400" font-size="19" transform="translate(288.621 551)">Request Attribution List<tspan x="0" y="23">changes</tspan></text><path d="M286.5 601.167 524.041 601.167 524.041 601.833 286.5 601.833ZM522.708 597.5 530.708 601.5 522.708 605.5Z" fill="#4472C4"/><text font-family="Calibri,Calibri_MSFontService,sans-serif" font-weight="400" font-size="19" transform="translate(284.596 631)">Receive Attribution List <tspan x="0" y="23">changes</tspan></text><path d="M293.167 466.167 530.708 466.167 530.708 466.833 293.167 466.833ZM294.5 470.5 286.5 466.5 294.5 462.5Z" fill="#4472C4"/><text font-family="Calibri,Calibri_MSFontService,sans-serif" font-weight="400" font-size="16" transform="translate(295.635 444)">Request Attribution List changes</text><path d="M286.5 510.167 524.041 510.167 524.041 510.833 286.5 510.833ZM522.708 506.5 530.708 510.5 522.708 514.5Z" fill="#4472C4"/><text font-family="Calibri,Calibri_MSFontService,sans-serif" font-weight="400" font-size="16" transform="translate(301.099 502)">Notify Attribution List changes</text></g></svg>