<svg width="1233" height="682" xmlns="http://www.w3.org/2000/svg" xmlns:xlink="http://www.w3.org/1999/xlink" overflow="hidden"><defs><clipPath id="clip0"><rect x="26" y="38" width="1233" height="682"/></clipPath></defs><g clip-path="url(#clip0)" transform="translate(-26 -38)"><text fill="#F1F0F0" font-family="Calibri,Calibri_MSFontService,sans-serif" font-weight="400" font-size="15" transform="translate(609 706)">Disclaimer<tspan x="631.767" y="0">4</tspan><tspan fill="#E7E6E6" font-weight="700" font-size="32" x="-124.855" y="-628">Attribution List Data mapped to FHIR Constructs</tspan></text><rect x="27.5001" y="245.5" width="259" height="67" stroke="#2F528F" stroke-width="1.33333" stroke-miterlimit="8" fill="none"/><text font-family="Calibri,Calibri_MSFontService,sans-serif" font-weight="400" font-size="24" transform="translate(129.157 287)">Group</text><rect x="424.5" y="245.5" width="132" height="67" stroke="#2F528F" stroke-width="1.33333" stroke-miterlimit="8" fill="none"/><text font-family="Calibri,Calibri_MSFontService,sans-serif" font-weight="400" font-size="19" transform="translate(441.968 268)">Patient <tspan x="0" y="23">(Member)</tspan></text><path d="M5.07877e-07-0.666667 131.145-0.666567 131.145 0.666767-5.07877e-07 0.666667ZM129.811-3.9999 137.811 0.000104987 129.811 4.0001Z" fill="#4472C4" transform="matrix(1 0 0 -1 286.5 278.5)"/><text font-family="Calibri,Calibri_MSFontService,sans-serif" font-weight="400" font-size="24" transform="translate(368.677 244)">1..*</text><rect x="851.5" y="144.5" width="340" height="67" stroke="#2F528F" stroke-width="1.33333" stroke-miterlimit="8" fill="none"/><rect x="847.5" y="244.5" width="344" height="67" stroke="#2F528F" stroke-width="1.33333" stroke-miterlimit="8" fill="none"/><rect x="718.5" y="346.5" width="421" height="51" stroke="#2F528F" stroke-width="1.33333" stroke-miterlimit="8" fill="none"/><text font-family="Calibri,Calibri_MSFontService,sans-serif" font-weight="400" font-size="19" transform="translate(869.42 181)">PractitionerRole<tspan x="122.74" y="0">/Practitioner</tspan><tspan x="0.00012207" y="97">Organization</tspan><tspan x="-123.216" y="191">Patient/</tspan><tspan x="-61.9627" y="191">RelatedPerson</tspan><tspan x="51.6439" y="191">(Subscriber)</tspan></text><path d="M0.000583391-0.666666 290.45-0.412498 290.449 0.920835-0.000583391 0.666666ZM282.795-4.99505 291.778 0.255331 282.786 5.48998C282.468 5.67523 282.06 5.56744 281.874 5.24925 281.689 4.93105 281.797 4.52293 282.115 4.33769L290.119-0.321973 290.118 0.829731 282.122-3.84393C281.804-4.02973 281.697-4.43804 281.883-4.75591 282.069-5.07378 282.477-5.18085 282.795-4.99505Z" fill="#4472C4" transform="matrix(1 0 0 -1 556.5 278.755)"/><rect x="717.5" y="494.5" width="422" height="35" stroke="#2F528F" stroke-width="1.33333" stroke-miterlimit="8" fill="none"/><text font-family="Calibri,Calibri_MSFontService,sans-serif" font-weight="400" font-size="19" transform="translate(758.722 514)">Coverage<tspan font-size="24" x="48.8208" y="-344">0..*</tspan><tspan font-size="24" x="38.2241" y="-248">0..1</tspan><tspan font-size="24" x="-66.5377" y="-141">1</tspan><tspan font-size="24" x="-210.534" y="-148">Related to</tspan><tspan font-size="24" x="-178.397" y="-251">Attributed </tspan></text><path d="M0-0.666667 148.225-0.666667 148.225 100.884 147.558 100.217 293.797 100.217 293.797 101.55 146.892 101.55 146.892 0 147.558 0.666667 0 0.666667ZM286.132 95.6412 295.12 100.884 286.132 106.126C285.814 106.312 285.406 106.204 285.221 105.886 285.035 105.568 285.143 105.16 285.461 104.974L293.461 100.308 293.461 101.46 285.461 96.7929C285.143 96.6073 285.035 96.1991 285.221 95.8811 285.406 95.5631 285.814 95.4556 286.132 95.6412Z" fill="#4472C4" transform="matrix(1 0 0 -1 556.5 278.384)"/><path d="M0-0.666667 60.5147-0.666667 60.5147 227.155 59.1814 227.155 59.1814 0 59.8481 0.666667 0 0.666667ZM65.0906 219.492 59.8481 228.479 54.6056 219.492C54.42 219.174 54.5275 218.766 54.8455 218.58 55.1635 218.395 55.5718 218.502 55.7573 218.82L60.4239 226.82 59.2722 226.82 63.9389 218.82C64.1244 218.502 64.5326 218.395 64.8507 218.58 65.1687 218.766 65.2761 219.174 65.0906 219.492Z" fill="#4472C4" transform="matrix(1.83697e-16 1 1 -1.83697e-16 490.5 312.5)"/><rect x="27.5001" y="491.5" width="259" height="93" stroke="#2F528F" stroke-width="1.33333" stroke-miterlimit="8" fill="none"/><text font-family="Calibri,Calibri_MSFontService,sans-serif" font-weight="400" font-size="24" transform="translate(295.039 253)">has</text><path d="M0.333334 0.656168 0.333543 179.443-0.333123 179.443-0.333333 0.656168ZM-4.95458 8.49205-3.75101e-09-0.00154492 4.9546 8.49204C5.04736 8.65105 4.99365 8.85516 4.83463 8.94792 4.67562 9.04068 4.47151 8.98697 4.37875 8.82795L-0.287925 0.827957 0.287927 0.827957-4.37873 8.82796C-4.47149 8.98698-4.6756 9.04069-4.83461 8.94793-4.99363 8.85517-5.04734 8.65107-4.95458 8.49205Z" fill="#4472C4" transform="matrix(-1 0 0 1 157.5 312.5)"/><text font-family="Calibri,Calibri_MSFontService,sans-serif" font-weight="400" font-size="24" transform="translate(169.953 351)">Created Based <tspan x="0" y="29">on contract</tspan><tspan font-size="19" x="-123.461" y="169">Contract (Only Contract </tspan><tspan font-size="19" x="-123.461" y="192">Identifier used in Member </tspan><tspan font-size="19" x="-123.461" y="214">Attribution List)</tspan></text><path d="M0-0.666667 273.147-0.666667 273.147 226.123 271.814 226.123 271.814 0 272.48 0.666667 0 0.666667ZM277.723 218.46 272.48 227.448 267.238 218.46C267.052 218.142 267.16 217.734 267.478 217.549 267.796 217.363 268.204 217.471 268.389 217.789L273.056 225.789 271.904 225.789 276.571 217.789C276.757 217.471 277.165 217.363 277.483 217.549 277.801 217.734 277.908 218.142 277.723 218.46Z" fill="#4472C4" transform="matrix(1.83697e-16 1 1 -1.83697e-16 490.5 312.5)"/><rect x="717.5" y="562.5" width="424" height="44" stroke="#2F528F" stroke-width="1.33333" stroke-miterlimit="8" fill="none"/><text font-family="Calibri,Calibri_MSFontService,sans-serif" font-weight="400" font-size="19" transform="translate(737.02 589)">Any Resource for capturing related data<tspan font-size="24" x="-205.451" y="-18">has</tspan><tspan font-size="24" x="-72.7052" y="-15">0..*</tspan></text><path d="M0-0.666667 200.548-0.666667 200.548 226.123 199.215 226.123 199.215 0 199.881 0.666667 0 0.666667ZM205.124 218.46 199.881 227.448 194.639 218.46C194.453 218.142 194.561 217.734 194.879 217.549 195.197 217.363 195.605 217.471 195.791 217.789L200.457 225.789 199.306 225.789 203.972 217.789C204.158 217.471 204.566 217.363 204.884 217.549 205.202 217.734 205.309 218.142 205.124 218.46Z" fill="#4472C4" transform="matrix(1.83697e-16 1 1 -1.83697e-16 490.5 312.5)"/><text font-family="Calibri,Calibri_MSFontService,sans-serif" font-weight="400" font-size="24" transform="translate(531.569 494)">has<tspan x="126.273" y="3">0..*</tspan></text><path d="M0.333326-0.00228125 0.950693 90.2048 0.284042 90.2094-0.333326 0.00228125ZM4.60815 88.8463 0.662992 96.8735-3.39166 88.901Z" fill="#4472C4" transform="matrix(1 0 0 -1 928.5 494.374)"/><text font-family="Calibri,Calibri_MSFontService,sans-serif" font-weight="400" font-size="24" transform="translate(950.384 457)">has<tspan x="-13.4069" y="-37">1</tspan></text></g></svg>