<svg width="1178" height="686" xmlns="http://www.w3.org/2000/svg" xmlns:xlink="http://www.w3.org/1999/xlink" overflow="hidden"><defs><clipPath id="clip0"><rect x="81" y="37" width="1178" height="686"/></clipPath></defs><g clip-path="url(#clip0)" transform="translate(-81 -37)"><path d="M591.5 193.501C591.5 168.648 611.648 148.5 636.501 148.5L816.499 148.5C841.352 148.5 861.5 168.648 861.5 193.501L861.5 647.499C861.5 672.352 841.352 692.5 816.499 692.5L636.501 692.5C611.648 692.5 591.5 672.352 591.5 647.499Z" stroke="#000000" stroke-width="1.33333" stroke-miterlimit="8" fill="none" fill-rule="evenodd"/><text font-family="Calibri,Calibri_MSFontService,sans-serif" font-weight="400" font-size="24" transform="translate(675.994 177)">Consumer<tspan fill="#F1F0F0" font-size="15" x="-235.567" y="531">Disclaimer</tspan><tspan fill="#F1F0F0" font-size="15" x="564.773" y="529">1</tspan></text><path d="M120.5 235.834C120.5 225.708 128.708 217.5 138.834 217.5L262.166 217.5C272.292 217.5 280.5 225.708 280.5 235.834L280.5 309.166C280.5 319.292 272.292 327.5 262.166 327.5L138.834 327.5C128.708 327.5 120.5 319.292 120.5 309.166Z" stroke="#000000" stroke-width="1.33333" stroke-miterlimit="8" fill="none" fill-rule="evenodd"/><text font-family="Calibri,Calibri_MSFontService,sans-serif" font-weight="400" font-size="19" transform="translate(135.944 255)">Producer creates <tspan x="-0.240005" y="23">initial attribution </tspan><tspan x="53.06" y="45">list</tspan></text><path d="M652.5 234.834C652.5 224.708 660.708 216.5 670.834 216.5L794.166 216.5C804.292 216.5 812.5 224.708 812.5 234.834L812.5 308.166C812.5 318.292 804.292 326.5 794.166 326.5L670.834 326.5C660.708 326.5 652.5 318.292 652.5 308.166Z" stroke="#000000" stroke-width="1.33333" stroke-miterlimit="8" fill="none" fill-rule="evenodd"/><text font-family="Calibri,Calibri_MSFontService,sans-serif" font-weight="400" font-size="19" transform="translate(693.154 243)">Consumer <tspan x="-13.8467" y="23">receives list &amp; </tspan><tspan x="4.18665" y="45">historical </tspan><tspan x="-6.08002" y="68">information </tspan></text><path d="M653.5 367.667C653.5 357.634 661.634 349.5 671.667 349.5L795.333 349.5C805.366 349.5 813.5 357.634 813.5 367.667L813.5 440.333C813.5 450.366 805.366 458.5 795.333 458.5L671.667 458.5C661.634 458.5 653.5 450.366 653.5 440.333Z" stroke="#000000" stroke-width="1.33333" stroke-miterlimit="8" fill="none" fill-rule="evenodd"/><text font-family="Calibri,Calibri_MSFontService,sans-serif" font-weight="400" font-size="19" transform="translate(694.117 365)">Consumer <tspan x="-25.4467" y="23">reconciles list via </tspan><tspan x="2.03998" y="45">their own </tspan><tspan x="-2.28003" y="68">attribution </tspan><tspan x="1.89996" y="90">algorithm</tspan></text><path d="M121.5 492.834C121.5 482.708 129.708 474.5 139.834 474.5L263.166 474.5C273.292 474.5 281.5 482.708 281.5 492.834L281.5 566.166C281.5 576.292 273.292 584.5 263.166 584.5L139.834 584.5C129.708 584.5 121.5 576.292 121.5 566.166Z" stroke="#000000" stroke-width="1.33333" stroke-miterlimit="8" fill="none" fill-rule="evenodd"/><text font-family="Calibri,Calibri_MSFontService,sans-serif" font-weight="400" font-size="19" transform="translate(143.228 501)">Producer starts <tspan x="3.06667" y="23">sending list on </tspan><tspan x="9.75333" y="45">agreed upon </tspan><tspan x="26.3733" y="68">cadence</tspan></text><path d="M120.5 367.667C120.5 357.634 128.634 349.5 138.667 349.5L262.333 349.5C272.366 349.5 280.5 357.634 280.5 367.667L280.5 440.333C280.5 450.366 272.366 458.5 262.333 458.5L138.667 458.5C128.634 458.5 120.5 450.366 120.5 440.333Z" stroke="#000000" stroke-width="1.33333" stroke-miterlimit="8" fill="none" fill-rule="evenodd"/><text font-family="Calibri,Calibri_MSFontService,sans-serif" font-weight="400" font-size="19" transform="translate(136.487 398)">Producer adjusts <tspan x="9.99333" y="23">algorithm/ list</tspan></text><path d="M0-0.333333 186.573-0.333333 186.573 0.96 186.24 0.626667 365.814 0.626667 365.814 1.29333 185.907 1.29333 185.907 0 186.24 0.333333 0 0.333333ZM364.48-3.04 372.48 0.96 364.48 4.96Z" fill="#4472C4" transform="matrix(1 0 0 -1 280.5 272.46)"/><path d="M0-0.333333 11.8533-0.333333 11.8533 0.96 11.52 0.626667 16.3733 0.626667 16.3733 1.29333 11.1867 1.29333 11.1867 0 11.52 0.333333 0 0.333333ZM15.04-3.04 23.04 0.96 15.04 4.96Z" fill="#4472C4" transform="matrix(1.83697e-16 1 1 -1.83697e-16 732.5 326.5)"/><path d="M0-0.333333 187.053-0.333333 187.053 0.133333 186.72-0.2 366.773-0.2 366.773 0.466667 186.387 0.466667 186.387 0 186.72 0.333333 0 0.333333ZM365.44-3.86667 373.44 0.133333 365.44 4.13333Z" fill="#4472C4" transform="matrix(-1 1.22465e-16 1.22465e-16 1 653.94 404.5)"/><path d="M199.167 349.713 199.167 338.273 200.833 338.273 200.5 338.607 200.5 334.167 201.167 334.167 201.167 338.94 199.5 338.94 199.833 338.607 199.833 349.713ZM196.833 335.5 200.833 327.5 204.833 335.5Z" fill="#4472C4"/><path d="M733.993 458.5 733.993 529.433 288.167 529.433 288.167 528.767 733.66 528.767 733.327 529.1 733.327 458.5ZM289.5 533.1 281.5 529.1 289.5 525.1Z" fill="#4472C4"/><path d="M82.5001 186.167C82.5001 164.26 100.26 146.5 122.167 146.5L280.833 146.5C302.74 146.5 320.5 164.26 320.5 186.167L320.5 663.833C320.5 685.74 302.74 703.5 280.833 703.5L122.167 703.5C100.26 703.5 82.5001 685.74 82.5001 663.833Z" stroke="#000000" stroke-width="1.33333" stroke-miterlimit="8" fill="none" fill-rule="evenodd"/><text font-family="Calibri,Calibri_MSFontService,sans-serif" font-weight="400" font-size="24" transform="translate(156.637 183)">Producer</text><path d="M0.989698-0.5 135.36-0.5C135.636-0.5 135.86-0.276142 135.86 0L135.86 0.811129 135.36 0.311129 269.73 0.311129 269.73 1.31113 135.36 1.31113C135.084 1.31113 134.86 1.08727 134.86 0.811129L134.86 0 135.36 0.5 0.989698 0.5ZM8.73806 5.09856-0.0023174 0 8.73806-5.09856C8.97659-5.2377 9.28275-5.15713 9.42189-4.9186 9.56103-4.68008 9.48046-4.37392 9.24194-4.23478L1.24194 0.431889 1.24194-0.431889 9.24194 4.23478C9.48046 4.37392 9.56103 4.68008 9.42189 4.9186 9.28275 5.15713 8.97659 5.2377 8.73806 5.09856ZM261.982-4.28743 270.722 0.811129 261.982 5.90968C261.743 6.04883 261.437 5.96826 261.298 5.72973 261.159 5.49121 261.24 5.18505 261.478 5.04591L269.478 0.379239 269.478 1.24302 261.478-3.42365C261.24-3.56279 261.159-3.86895 261.298-4.10747 261.437-4.346 261.743-4.42657 261.982-4.28743Z" fill="#4472C4" transform="matrix(1 0 0 -1 320.5 226.311)"/><text font-family="Calibri,Calibri_MSFontService,sans-serif" font-weight="400" font-size="19" transform="translate(340.124 147)">Producer/Consumer enter <tspan x="0" y="23">relationship and agree on </tspan><tspan x="0" y="45">attribution method and </tspan><tspan x="0" y="68">need for a list</tspan></text><path d="M653.5 579.667C653.5 569.634 661.634 561.5 671.667 561.5L804.333 561.5C814.366 561.5 822.5 569.634 822.5 579.667L822.5 652.333C822.5 662.366 814.366 670.5 804.333 670.5L671.667 670.5C661.634 670.5 653.5 662.366 653.5 652.333Z" stroke="#000000" stroke-width="1.33333" stroke-miterlimit="8" fill="none" fill-rule="evenodd"/><text font-family="Calibri,Calibri_MSFontService,sans-serif" font-weight="400" font-size="19" transform="translate(676.347 577)">Consumer loads <tspan x="4.42664" y="23">data to various </tspan><tspan x="20.88" y="45">systems to </tspan><tspan x="1.6333" y="68">support various </tspan><tspan x="25.3267" y="90">use cases</tspan><tspan x="-336.168" y="-193">Request Changes needed </tspan><tspan x="-304.12" y="-55">No changes needed</tspan></text><path d="M281.5 561.167 468.073 561.167 468.073 616.22 467.74 615.887 647.314 615.887 647.314 616.553 467.407 616.553 467.407 561.5 467.74 561.833 281.5 561.833ZM645.98 612.22 653.98 616.22 645.98 620.22Z" fill="#4472C4"/><path d="M531.5 214.5C531.5 205.663 537.992 198.5 546 198.5 554.008 198.5 560.5 205.663 560.5 214.5 560.5 223.337 554.008 230.5 546 230.5 537.992 230.5 531.5 223.337 531.5 214.5Z" stroke="#2F528F" stroke-width="1.33333" stroke-miterlimit="8" fill="#FFFF00" fill-rule="evenodd"/><text font-family="Calibri,Calibri_MSFontService,sans-serif" font-weight="400" font-size="24" transform="translate(539.494 222)">1</text><path d="M457.5 259.5C457.5 250.663 463.992 243.5 472 243.5 480.008 243.5 486.5 250.663 486.5 259.5 486.5 268.337 480.008 275.5 472 275.5 463.992 275.5 457.5 268.337 457.5 259.5Z" stroke="#2F528F" stroke-width="1.33333" stroke-miterlimit="8" fill="#FFFF00" fill-rule="evenodd"/><text font-family="Calibri,Calibri_MSFontService,sans-serif" font-weight="400" font-size="24" transform="translate(465.344 267)">2</text><path d="M577.5 380C577.5 371.44 592.946 364.5 612 364.5 631.054 364.5 646.5 371.44 646.5 380 646.5 388.56 631.054 395.5 612 395.5 592.946 395.5 577.5 388.56 577.5 380Z" stroke="#2F528F" stroke-width="1.33333" stroke-miterlimit="8" fill="#FFFF00" fill-rule="evenodd"/><text font-family="Calibri,Calibri_MSFontService,sans-serif" font-weight="400" font-size="24" transform="translate(599.783 387)">3a</text><path d="M544.5 510C544.5 500.335 562.185 492.5 584 492.5 605.815 492.5 623.5 500.335 623.5 510 623.5 519.665 605.815 527.5 584 527.5 562.185 527.5 544.5 519.665 544.5 510Z" stroke="#2F528F" stroke-width="1.33333" stroke-miterlimit="8" fill="#FFFF00" fill-rule="evenodd"/><text font-family="Calibri,Calibri_MSFontService,sans-serif" font-weight="400" font-size="24" transform="translate(570.934 517)">3b</text><path d="M421.5 596C421.5 586.887 427.992 579.5 436 579.5 444.008 579.5 450.5 586.887 450.5 596 450.5 605.113 444.008 612.5 436 612.5 427.992 612.5 421.5 605.113 421.5 596Z" stroke="#2F528F" stroke-width="1.33333" stroke-miterlimit="8" fill="#FFFF00" fill-rule="evenodd"/><text font-family="Calibri,Calibri_MSFontService,sans-serif" font-weight="400" font-size="24" transform="translate(428.991 603)">4<tspan fill="#E7E6E6" font-weight="700" font-size="29" x="47.6096" y="-530">Attribution List Workflow</tspan><tspan x="522.61" y="-36">Note: Steps 2 and 3a will be </tspan><tspan x="522.61" y="-7">repeated as many times as </tspan><tspan x="522.61" y="22">needed until no further </tspan><tspan x="522.61" y="51">changes are needed.  </tspan></text></g></svg>